HIERARCHY
ROOT hip
{
  OFFSET 0 0 0
  CHANNELS 6 Xposition Yposition Zposition Zrotation Yrotation Xrotation
  JOINT abdomen
  {
    OFFSET 0 20.6881 -0.73152
    CHANNELS 3 Zrotation Xrotation Yrotation
    JOINT chest
    {
      OFFSET 0 11.7043 -0.48768
      CHANNELS 3 Zrotation Xrotation Yrotation
      JOINT neck
      {
        OFFSET 0 22.1894 -2.19456
        CHANNELS 3 Zrotation Xrotation Yrotation
        JOINT head
        {
          OFFSET -0.24384 7.07133 1.2192
          CHANNELS 3 Zrotation Xrotation Yrotation
          JOINT leftEye
          {
            OFFSET 4.14528 8.04674 8.04672
            CHANNELS 3 Zrotation Xrotation Yrotation
            End Site
            {
              OFFSET 1 0 0
            }
          }
          JOINT rightEye
          {
            OFFSET -3.6576 8.04674 8.04672
            CHANNELS 3 Zrotation Xrotation Yrotation
            End Site
            {
              OFFSET 1 0 0
            }
          }
        }
      }
      JOINT rCollar
      {
        OFFSET -2.68224 19.2634 -4.8768
        CHANNELS 3 Zrotation Xrotation Yrotation
        JOINT rShldr
        {
          OFFSET -8.77824 -1.95073 1.46304
          CHANNELS 3 Zrotation Xrotation Yrotation
          JOINT rForeArm
          {
            OFFSET -28.1742 -1.7115 0.48768
            CHANNELS 3 Zrotation Xrotation Yrotation
            JOINT rHand
            {
              OFFSET -22.5879 0.773209 7.07136
              CHANNELS 3 Zrotation Xrotation Yrotation
              JOINT rThumb1
              {
                OFFSET -1.2192 -0.487915 3.41376
                CHANNELS 3 Zrotation Xrotation Yrotation
                JOINT rThumb2
                {
                  OFFSET -3.37035 -0.52449 3.41376
                  CHANNELS 3 Zrotation Xrotation Yrotation
                  End Site
                  {
                    OFFSET -1.78271 -1.18214 1.43049
                  }
                }
              }
              JOINT rIndex1
              {
                OFFSET -7.75947 0.938293 5.60832
                CHANNELS 3 Zrotation Xrotation Yrotation
                JOINT rIndex2
                {
                  OFFSET -2.54057 -0.884171 1.56538
                  CHANNELS 3 Zrotation Xrotation Yrotation
                  End Site
                  {
                    OFFSET -1.62519 -0.234802 1.16502
                  }
                }
              }
              JOINT rMid1
              {
                OFFSET -8.24714 1.18213 3.41376
                CHANNELS 3 Zrotation Xrotation Yrotation
                JOINT rMid2
                {
                  OFFSET -3.10165 -0.590103 1.0647
                  CHANNELS 3 Zrotation Xrotation Yrotation
                  End Site
                  {
                    OFFSET -2.48547 -0.328903 0.83742
                  }
                }
              }
              JOINT rRing1
              {
                OFFSET -8.82822 0.546677 1.51678
                CHANNELS 3 Zrotation Xrotation Yrotation
                JOINT rRing2
                {
                  OFFSET -2.60934 -0.819778 -0.0198488
                  CHANNELS 3 Zrotation Xrotation Yrotation
                  End Site
                  {
                    OFFSET -2.33842 -0.294052 0.168128
                  }
                }
              }
              JOINT rPinky1
              {
                OFFSET -8.27202 -0.0477905 -0.4584
                CHANNELS 3 Zrotation Xrotation Yrotation
                JOINT rPinky2
                {
                  OFFSET -1.82734 -0.647385 -0.700984
                  CHANNELS 3 Zrotation Xrotation Yrotation
                  End Site
                  {
                    OFFSET -1.69225 -0.51767 -0.607171
                  }
                }
              }
            }
          }
        }
      }
      JOINT lCollar
      {
        OFFSET 2.68224 19.2634 -4.8768
        CHANNELS 3 Zrotation Xrotation Yrotation
        JOINT lShldr
        {
          OFFSET 8.77824 -1.95073 1.46304
          CHANNELS 3 Zrotation Xrotation Yrotation
          JOINT lForeArm
          {
            OFFSET 28.1742 -1.7115 0.48768
            CHANNELS 3 Zrotation Xrotation Yrotation
            JOINT lHand
            {
              OFFSET 22.5879 0.773209 7.07136
              CHANNELS 3 Zrotation Xrotation Yrotation
              JOINT lThumb1
              {
                OFFSET 1.2192 -0.487915 3.41376
                CHANNELS 3 Zrotation Xrotation Yrotation
                JOINT lThumb2
                {
                  OFFSET 3.37035 -0.52449 3.41376
                  CHANNELS 3 Zrotation Xrotation Yrotation
                  End Site
                  {
                    OFFSET 1.78271 -1.18214 1.43049
                  }
                }
              }
              JOINT lIndex1
              {
                OFFSET 7.75947 0.938293 5.60832
                CHANNELS 3 Zrotation Xrotation Yrotation
                JOINT lIndex2
                {
                  OFFSET 2.54057 -0.884171 1.56538
                  CHANNELS 3 Zrotation Xrotation Yrotation
                  End Site
                  {
                    OFFSET 1.62519 -0.234802 1.16502
                  }
                }
              }
              JOINT lMid1
              {
                OFFSET 8.24714 1.18213 3.41376
                CHANNELS 3 Zrotation Xrotation Yrotation
                JOINT lMid2
                {
                  OFFSET 3.10165 -0.590103 1.0647
                  CHANNELS 3 Zrotation Xrotation Yrotation
                  End Site
                  {
                    OFFSET 2.48547 -0.328903 0.83742
                  }
                }
              }
              JOINT lRing1
              {
                OFFSET 8.82822 0.546677 1.51678
                CHANNELS 3 Zrotation Xrotation Yrotation
                JOINT lRing2
                {
                  OFFSET 2.60934 -0.819778 -0.0198488
                  CHANNELS 3 Zrotation Xrotation Yrotation
                  End Site
                  {
                    OFFSET 2.33842 -0.294052 0.168128
                  }
                }
              }
              JOINT lPinky1
              {
                OFFSET 8.27202 -0.0477905 -0.4584
                CHANNELS 3 Zrotation Xrotation Yrotation
                JOINT lPinky2
                {
                  OFFSET 1.82734 -0.647385 -0.700984
                  CHANNELS 3 Zrotation Xrotation Yrotation
                  End Site
                  {
                    OFFSET 1.69225 -0.51767 -0.607171
                  }
                }
              }
            }
          }
        }
      }
    }
  }
  JOINT rButtock
  {
    OFFSET -8.77824 4.35084 1.2192
    CHANNELS 3 Zrotation Xrotation Yrotation
    JOINT rThigh
    {
      OFFSET 0 -1.70687 -2.19456
      CHANNELS 3 Zrotation Xrotation Yrotation
      JOINT rShin
      {
        OFFSET 0 -36.8199 0.73152
        CHANNELS 3 Zrotation Xrotation Yrotation
        JOINT rFoot
        {
          OFFSET 0.73152 -45.1104 -5.12064
          CHANNELS 3 Zrotation Xrotation Yrotation
          End Site
          {
            OFFSET -1.1221 -3.69964 12.103
          }
        }
      }
    }
  }
  JOINT lButtock
  {
    OFFSET 8.77824 4.35084 1.2192
    CHANNELS 3 Zrotation Xrotation Yrotation
    JOINT lThigh
    {
      OFFSET 0 -1.70687 -2.19456
      CHANNELS 3 Zrotation Xrotation Yrotation
      JOINT lShin
      {
        OFFSET 0 -36.8199 0.73152
        CHANNELS 3 Zrotation Xrotation Yrotation
        JOINT lFoot
        {
          OFFSET -0.73152 -45.1104 -5.12064
          CHANNELS 3 Zrotation Xrotation Yrotation
          End Site
          {
            OFFSET 1.1221 -3.69964 12.103
          }
        }
      }
    }
  }
}
MOTION
Frames:	4
Frame Time:	0.03333
-29.0228 54.627 -45.9509 17.516734 52.690404 16.372471 -20.184719 9.823925 -0.0 6.837468 -8.139145 6.793881 -4.762381 12.602862 -3.269561 0.357598 -21.923589 -33.993201 1.479982 0.205678 15.822958 -6.161137 -0.564142 10.45341 -2.811577 15.829465 2.471237 78.385211 -36.018978 46.239049 5.935219 30.146138 33.378021 -9.15668 50.003172 4.329211 -95.173846 37.172729 52.219387 -113.468439 -7.874272 66.719025 -149.976226 -6.545712 113.58104 -156.658584 2.815728 111.145792 -157.513434 3.650476 136.167878 -25.647973 47.530611 27.90076 -3.7827 -1.668992 1.505185 -149.216744 15.379201 165.36105 -141.655213 14.738873 -138.211156 -22.929045 -34.807221 -42.339442 1.548492 0.945265 -2.18293 35.173994 -59.465892 109.3462 -73.764934 -49.843491 71.971891 151.044076 41.531688 -122.483476 1.242165 0.328429 1.977806 44.155951 13.15944 -41.007435 109.493582 27.525791 -86.270735 160.704382 -31.936624 -98.427399 158.160774 5.206677 -136.107985 -78.313614 -79.447064 -50.98941 -0.669014 -17.870693 -1.228821 69.47411 82.245621 -76.093825 58.975296 -61.613408 59.563775 -2.693975 29.613396 -10.064017 -20.969568 -1.362119 -19.300137 -11.024512 -60.857196 -12.574653 2.57934 76.746741 -139.14994 -97.683746 52.492265 -176.373562 -35.345159 -0.788027 -16.048623 39.360712 23.686549 -180.0 2.619057 -41.301498 -72.30215 -148.704089 20.556921 42.146212
-29.060599999999997 54.5794 -45.7716 17.762563 52.515503 16.521765 -17.99656 6.863707 -99.483191 4.614169 5.222982 105.300668 -1.703696 12.149828 12.427945 -8.891011 -19.951443 -51.236558 2.411997 0.306999 14.505109 -7.362592 -0.676444 10.484464 -17.996802 50.417686 19.422942 -167.222484 -8.289132 125.53316 -128.710394 2.194353 174.106502 16.90302 -24.579382 11.293218 9.731456 -11.915062 0.244025 -126.118332 -14.890129 109.451415 27.516997 -46.08976 1.251811 -165.704176 -29.185938 117.890442 -153.69424 11.897355 133.58294 172.143073 -59.014471 128.704069 -148.856874 3.633594 177.597919 11.74931 36.423865 -9.889755 56.759976 80.050828 -15.295129 -17.170323 -2.159894 -14.254256 163.083977 -49.129765 -167.10764 55.646768 18.678618 10.047472 175.345471 25.545838 87.598406 8.558403 -10.383437 7.567004 95.545699 39.540963 -54.184988 -18.367366 -43.121727 -18.610654 154.111502 -14.04077 -113.126214 84.147541 33.254882 -59.074875 155.960059 10.605081 -135.189206 1.317312 7.934806 0.864705 145.920129 -2.553806 -174.078163 34.28225 78.472187 -54.173306 131.715983 -27.511853 137.458565 148.363881 37.117376 156.756632 0.345545 -5.264434 -0.410706 -54.681887 -51.795484 -60.892855 -44.114852 71.432505 -166.863963 -119.543503 -15.546771 158.124958 163.98197 79.111059 0.0 -79.947717 65.496254 162.688941 -43.379156 -10.77287 -79.875907 -74.964628 -13.623848 -163.935531
-29.149 54.5544 -45.671800000000005 17.554331 52.867665 16.146707 -17.486942 8.01442 -91.753639 6.032099 4.037074 98.015879 -10.53453 17.181118 -45.238658 23.151613 -14.542265 12.566513 2.250025 0.234881 11.917566 -7.864542 -0.855538 12.397802 -155.199238 -3.041921 163.510719 -31.205711 -15.635324 -16.413516 177.285887 -2.110459 -147.970268 -9.955839 52.929508 4.923795 -165.59731 -2.12657 88.953077 -113.350814 15.80509 55.908187 64.563282 -68.280155 23.343696 -117.114467 45.481494 96.095039 159.900007 -64.14843 127.788883 -173.947341 -18.708514 142.437723 -3.062817 -0.213239 0.246996 -166.359259 -77.990114 168.264041 -143.091467 15.452511 -136.218192 -129.50982 3.928161 -127.105394 -1.844236 -18.462751 1.564206 -91.20982 31.613115 50.593077 -165.092312 12.242199 -50.686426 161.827557 25.835885 -132.102695 100.555459 38.627764 -57.252631 66.401286 -5.952743 -37.62776 -146.808034 -66.142617 -91.064155 173.598906 -5.267865 -111.146846 1.512922 -0.31297 -2.297936 -175.065693 -48.092543 -134.95806 67.297059 69.653237 -84.46129 -11.271082 52.793838 5.580397 139.187367 58.905614 169.413582 74.916996 -53.306062 84.507128 163.756698 79.325488 13.918761 150.578953 8.28836 89.781935 67.751845 9.587305 -111.421091 86.497016 18.52109 -9.244732 -140.502307 71.889805 -40.932843 -99.972853 77.905154 -162.807562 -43.531444 7.638366 -87.549177 -20.318013 24.105993 -160.014742
-29.190500000000004 54.6747 -45.6075 17.292103 52.896537 15.944068 -19.635937 10.887957 -0.0 6.072397 -8.748798 7.442925 -11.86304 25.840106 -96.335204 34.676823 10.253627 58.523916 1.849997 0.147147 9.094557 -8.322543 -0.919213 12.583655 -131.755158 55.657798 136.301539 -34.980476 6.682383 26.354545 -175.35679 -30.696687 -148.271297 -6.627882 43.595474 4.550434 -81.470114 38.471457 44.140255 -121.512083 -11.234506 73.05728 -91.598198 37.942866 74.247788 -9.719807 25.407363 8.597064 -156.080842 14.336189 135.238739 -4.850708 16.298601 8.174302 -146.642349 -9.43129 -174.922267 -177.887458 76.878369 -167.855028 -152.851423 40.244584 -139.407811 -178.623004 53.578961 -120.879777 -3.019397 -26.953753 3.14671 -85.006812 27.827486 57.347746 4.792362 5.800443 -98.889642 5.867152 -21.62495 7.995291 -1.052516 -1.748756 1.182526 -5.328607 -2.26493 -7.51758 53.759465 35.239784 -43.462902 153.651218 -32.115172 -122.280519 162.125338 -6.732989 -140.713671 176.003775 -48.985626 -145.168261 146.311711 3.944477 -178.321854 -13.036714 -0.292899 9.803292 14.167486 -43.434932 14.261478 -0.45765 33.17295 -6.604521 159.995893 78.501301 16.98232 152.526074 9.260398 4.201045 -26.479211 72.581118 -66.297524 124.79615 -50.690046 -129.680652 -4.350382 -1.200292 5.520581 14.771947 13.119134 -3.133312 7.716153 34.280947 46.4135 -90.528529 -0.100679 -5.852504
